<svg width="1396.698730" height="1416.382812" viewBox="0 0 1396.7 1416.38" fill="none" xmlns="http://www.w3.org/2000/svg" xmlns:xlink="http://www.w3.org/1999/xlink">
	<desc>
			Created with Pixso.
	</desc>
	<defs/>
	<path id="Vector" d="M1395.54 467.26C1381.43 271.27 1306.46 67.45 881.99 98.18C457.52 128.9 -13.4 441.31 0.72 637.3C14.84 833.28 370.38 967.25 794.85 936.52C1219.31 905.8 1409.66 663.24 1395.54 467.26ZM1367.29 508.17C1361.75 316.56 1301.35 101.16 886.27 113.22C471.2 125.27 0.94 419.01 6.48 610.62C12.02 802.23 353 947.79 768.07 935.73C1183.15 923.67 1372.83 699.78 1367.29 508.17ZM890.85 128.05C485.24 121.45 15.7 396.54 12.67 583.81C9.64 771.07 335.99 928.23 741.61 934.83C1147.23 941.43 1336.19 736.19 1339.22 548.93C1342.25 361.66 1296.47 134.65 890.85 128.05ZM895.24 143.02C499.04 117.75 30.18 374.19 18.57 557.1C6.97 740.02 318.74 908.78 714.94 934.05C1111.14 959.31 1299.42 772.73 1311.03 589.82C1322.64 406.9 1291.43 168.28 895.24 143.02ZM899.53 157.93C512.71 114.02 154.69 313.24 134.53 491.78C114.36 670.32 301.41 889.22 688.24 933.12C1075.06 977.03 1262.68 809.1 1282.86 630.56C1303.03 452.02 1286.37 201.83 899.53 157.93ZM903.75 172.72C526.36 110.16 169.05 290.75 140.31 464.98C111.56 639.21 284.01 869.73 661.4 932.29C1038.79 994.85 1225.71 845.54 1254.44 671.31C1283.19 497.08 1281.14 235.27 903.75 172.72ZM908.18 187.7C540.19 106.46 183.55 268.35 146.23 438.2C108.92 608.03 266.8 850.14 634.79 931.38C1002.79 1012.62 1189.04 882.01 1226.35 712.17C1263.67 542.33 1276.18 268.94 908.18 187.7ZM912.49 202.54C553.95 102.66 198.01 245.95 152.13 411.47C106.24 577 249.52 830.71 608.07 930.58C966.61 1030.46 1152.16 918.46 1198.05 752.94C1243.93 587.42 1271.05 302.42 912.49 202.54ZM916.93 217.62C567.83 99.03 212.6 223.6 158.13 384.73C103.65 545.87 232.31 811.19 581.41 929.77C930.5 1048.36 1115.35 955.08 1169.82 793.95C1224.3 632.81 1266.03 336.2 916.93 217.62ZM921.32 232.48C581.61 95.24 227.04 201.17 164.01 357.97C100.97 514.76 215.07 791.69 554.78 928.92C894.49 1066.16 1220.98 1050.31 1284.02 893.51C1347.06 736.71 1261.04 369.72 921.32 232.48ZM925.67 247.27C595.38 91.4 241.5 178.72 169.89 331.21C98.27 483.69 197.79 772.22 528.08 928.09C858.37 1083.96 1184.18 1086.71 1255.79 934.22C1327.41 781.74 1255.97 403.13 925.67 247.27ZM930.1 262.28C609.24 87.73 256.05 156.37 175.85 304.5C95.65 452.62 180.56 752.77 501.41 927.33C822.26 1101.89 1147.38 1123.31 1227.57 975.19C1307.78 827.06 1250.94 436.84 930.1 262.28ZM934.39 277.17C622.94 83.97 270.45 133.96 181.71 277.72C92.96 421.47 163.32 733.18 474.77 926.38C786.22 1119.57 1134.12 1165.48 1222.86 1021.72C1311.61 877.97 1245.85 470.37 934.39 277.17ZM938.84 292.22C636.82 80.31 285.01 111.59 187.68 250.97C90.35 390.36 146.1 713.7 448.12 925.61C750.14 1137.52 1097.36 1202.13 1194.68 1062.75C1292.02 923.36 1240.86 504.13 938.84 292.22ZM943.08 307.24C650.47 76.67 299.33 89.32 193.42 224.38C87.51 359.44 128.67 694.4 421.28 924.97C713.89 1155.54 1060.43 1238.78 1166.35 1103.72C1272.26 968.66 1235.69 537.81 943.08 307.24ZM947.32 322.05C664.1 72.81 313.65 66.79 199.19 197.48C84.73 328.17 111.35 674.73 394.56 923.96C677.78 1173.19 1023.64 1275.11 1138.1 1144.42C1252.56 1013.73 1230.54 571.28 947.32 322.05ZM951.69 337.02C677.93 69.13 328.21 44.44 205.18 170.77C82.16 297.1 94.17 655.23 367.92 923.12C641.68 1191.01 986.81 1311.58 1109.84 1185.25C1232.86 1058.93 1225.44 604.9 951.69 337.02ZM956.08 351.92C691.73 65.36 342.67 22.03 211.07 144.02C79.46 266.01 76.88 635.77 341.23 922.33C605.57 1208.89 950.04 1348.11 1081.65 1226.12C1213.25 1104.13 1220.43 638.48 956.08 351.92ZM960.38 366.87C705.44 61.66 357.08 -0.33 216.93 117.3C76.79 234.93 59.66 616.27 314.6 921.48C569.54 1226.68 913.3 1384.57 1053.44 1266.93C1193.6 1149.31 1215.31 672.08 960.38 366.87ZM964.73 381.87C719.23 58.01 371.57 -22.64 222.86 90.63C74.14 203.91 42.42 596.85 287.92 920.72C533.43 1244.59 876.49 1421.13 1025.21 1307.85C1173.92 1194.57 1210.24 705.74 964.73 381.87ZM969.1 396.8C733.03 54.29 386.08 -45 228.79 63.93C71.51 172.86 25.19 577.38 261.26 919.9C497.33 1262.42 839.68 1457.59 996.96 1348.67C1154.25 1239.74 1205.17 739.32 969.1 396.8ZM973.48 411.47C746.77 50.31 400.46 -67.59 234.6 37.03C68.74 141.65 7.88 557.8 234.6 918.96C461.31 1280.13 803.03 1493.91 968.89 1389.3C1134.75 1284.68 1200.19 772.64 973.48 411.47Z" stroke="#2D42B7" stroke-opacity="0.100000" stroke-width="0.800000"/>
</svg>
