<svg width="114.250000" height="15.040039" viewBox="0 0 114.25 15.04" fill="none" xmlns="http://www.w3.org/2000/svg" xmlns:xlink="http://www.w3.org/1999/xlink">
	<desc>
			Created with Pixso.
	</desc>
	<defs/>
	<path id="Vector" d="M77.67 2.7L89.1 2.7L89.1 12.16L77.67 12.16L77.67 2.7ZM13.24 9.02L9.96 2.99L6.7 9.02L13.23 9.02L13.24 9.02ZM20.32 15.02L16.42 15.02L14.65 11.74L5.21 11.74L3.5 15.02L0 15.02L8.41 0L11.82 0L20.32 15.02ZM21.99 0L21.99 15.02L36.71 15.02L36.71 12.16L25.5 12.16L25.5 0L22 0L21.99 0ZM38.49 0L38.49 15.02L53.21 15.02L53.21 12.16L42 12.16L42 0L38.49 0ZM48.27 0L65.48 0L65.48 2.75L58.63 2.75L58.63 15.02L55.13 15.02L55.13 2.74L48.27 2.74L48.27 0ZM66.62 0L66.62 15.02L70.12 15.02L70.12 0L66.62 0ZM96.68 15.02L96.68 0L99.12 0L111.24 10.43L111.24 0L114.25 0L114.25 15.02L111.88 15.02L99.73 4.58L99.73 15.02L96.69 15.02L96.68 15.02ZM76.86 0C75.39 0 74.18 1.22 74.18 2.7L74.18 12.35C74.18 13.83 75.37 15.04 76.86 15.04L89.92 15.04C91.39 15.04 92.6 13.83 92.6 12.35L92.6 2.68C92.6 1.2 91.4 0 89.92 0L76.86 0L76.86 0Z" fill="#1D1E22" fill-opacity="1.000000" fill-rule="evenodd"/>
</svg>
